<?xml version="1.0" standalone="no"?>
<!DOCTYPE svg PUBLIC "-//W3C//DTD SVG 20010904//EN"
 "http://www.w3.org/TR/2001/REC-SVG-20010904/DTD/svg10.dtd">
<svg version="1.0" xmlns="http://www.w3.org/2000/svg"
 width="388.000000pt" height="388.000000pt" viewBox="0 0 388.000000 388.000000"
 preserveAspectRatio="xMidYMid meet">
<metadata>
Created by potrace 1.11, written by Peter Selinger 2001-2013
</metadata>
<g transform="translate(0.000000,388.000000) scale(0.100000,-0.100000)"
fill="#000000" stroke="none">
<path d="M307 3869 c-110 -26 -218 -116 -270 -227 l-32 -67 -3 -1600 c-2
-1201 0 -1614 9 -1655 33 -156 153 -277 307 -309 75 -16 3169 -16 3244 0 148
31 264 143 304 294 18 66 21 3173 3 3257 -26 124 -107 224 -229 282 l-65 31
-1615 2 c-918 0 -1631 -3 -1653 -8z m2863 -1904 l0 -1785 -1235 0 -1235 0 0
1785 0 1785 1235 0 1235 0 0 -1785z"/>
<path d="M742 1968 l3 -1743 1193 -3 1192 -2 0 1745 0 1745 -1195 0 -1195 0 2
-1742z m971 1385 c18 -87 46 -239 77 -413 11 -63 25 -133 30 -155 6 -22 14
-67 19 -100 34 -213 97 -522 104 -505 6 17 42 194 51 255 7 41 26 144 72 385
14 74 29 158 34 185 21 123 61 334 71 378 l11 47 334 0 334 0 0 -1460 0 -1460
-265 0 -265 0 -1 223 c-1 122 -1 368 -1 547 1 230 -2 318 -9 300 -9 -23 -37
-150 -90 -415 -11 -55 -35 -172 -53 -260 -19 -88 -42 -198 -51 -245 -9 -47
-21 -102 -26 -122 l-10 -38 -139 0 c-123 0 -139 2 -144 18 -3 9 -37 172 -76
362 -82 401 -150 713 -156 719 -2 2 -4 -242 -4 -542 l0 -547 -265 0 -265 0 0
1460 0 1460 334 0 333 0 16 -77z"/>
</g>
</svg>
